<?xml version="1.0" encoding="UTF-8"?>
<svg id="Layer_1" data-name="Layer 1" xmlns="http://www.w3.org/2000/svg" viewBox="0 0 380.44 390.9">
  <defs>
    <style>
      .cls-1 {
        fill: #dcb265;
      }

      .cls-2 {
        fill: #b52a71;
      }

      .cls-3 {
        fill: #2b2347;
      }
    </style>
  </defs>
  <path class="cls-1" d="M314.97,388.15c-17.08,7.12-36.68-.96-43.8-18.03l-22.54-54.13,61.83-25.75,22.54,54.12c7.12,17.08-.96,36.69-18.03,43.8Z"/>
  <path class="cls-2" d="M306.17,279.94l-61.83,25.75-195.06,81.24h-.02c-8.51,4.55-18.91,5.38-28.53,1.43-17.1-7.04-25.25-26.62-18.21-43.72L135.96,20.74c7.04-17.1,26.62-25.25,43.72-18.21,2.82,1.16,5.39,2.66,7.7,4.44,0,0,.02,0,.03.02.02,0,.04.02.05.03,4.66,3.47,8.47,8.2,10.87,13.95l77.81,186.82-61.83,25.76-47.04-112.93-71.91,174.57,123.24-51.32,61.83-25.76,25.75,61.84Z"/>
  <path class="cls-3" d="M379,217.54l-62.29,58.41-11.57-27.79-3.4-8.17-10.78-25.88,84.77-4.26c4.17-.22,6.33,4.86,3.28,7.69Z"/>
</svg>